HIERARCHY
ROOT hip
{
  OFFSET 0 0 0
  CHANNELS 6 Xposition Yposition Zposition Zrotation Yrotation Xrotation
  JOINT abdomen
  {
    OFFSET 0 20.6881 -0.73152
    CHANNELS 3 Zrotation Xrotation Yrotation
    JOINT chest
    {
      OFFSET 0 11.7043 -0.48768
      CHANNELS 3 Zrotation Xrotation Yrotation
      JOINT neck
      {
        OFFSET 0 22.1894 -2.19456
        CHANNELS 3 Zrotation Xrotation Yrotation
        JOINT head
        {
          OFFSET -0.24384 7.07133 1.2192
          CHANNELS 3 Zrotation Xrotation Yrotation
          JOINT leftEye
          {
            OFFSET 4.14528 8.04674 8.04672
            CHANNELS 3 Zrotation Xrotation Yrotation
            End Site
            {
              OFFSET 1 0 0
            }
          }
          JOINT rightEye
          {
            OFFSET -3.6576 8.04674 8.04672
            CHANNELS 3 Zrotation Xrotation Yrotation
            End Site
            {
              OFFSET 1 0 0
            }
          }
        }
      }
      JOINT rCollar
      {
        OFFSET -2.68224 19.2634 -4.8768
        CHANNELS 3 Zrotation Xrotation Yrotation
        JOINT rShldr
        {
          OFFSET -8.77824 -1.95073 1.46304
          CHANNELS 3 Zrotation Xrotation Yrotation
          JOINT rForeArm
          {
            OFFSET -28.1742 -1.7115 0.48768
            CHANNELS 3 Zrotation Xrotation Yrotation
            JOINT rHand
            {
              OFFSET -22.5879 0.773209 7.07136
              CHANNELS 3 Zrotation Xrotation Yrotation
              JOINT rThumb1
              {
                OFFSET -1.2192 -0.487915 3.41376
                CHANNELS 3 Zrotation Xrotation Yrotation
                JOINT rThumb2
                {
                  OFFSET -3.37035 -0.52449 3.41376
                  CHANNELS 3 Zrotation Xrotation Yrotation
                  End Site
                  {
                    OFFSET -1.78271 -1.18214 1.43049
                  }
                }
              }
              JOINT rIndex1
              {
                OFFSET -7.75947 0.938293 5.60832
                CHANNELS 3 Zrotation Xrotation Yrotation
                JOINT rIndex2
                {
                  OFFSET -2.54057 -0.884171 1.56538
                  CHANNELS 3 Zrotation Xrotation Yrotation
                  End Site
                  {
                    OFFSET -1.62519 -0.234802 1.16502
                  }
                }
              }
              JOINT rMid1
              {
                OFFSET -8.24714 1.18213 3.41376
                CHANNELS 3 Zrotation Xrotation Yrotation
                JOINT rMid2
                {
                  OFFSET -3.10165 -0.590103 1.0647
                  CHANNELS 3 Zrotation Xrotation Yrotation
                  End Site
                  {
                    OFFSET -2.48547 -0.328903 0.83742
                  }
                }
              }
              JOINT rRing1
              {
                OFFSET -8.82822 0.546677 1.51678
                CHANNELS 3 Zrotation Xrotation Yrotation
                JOINT rRing2
                {
                  OFFSET -2.60934 -0.819778 -0.0198488
                  CHANNELS 3 Zrotation Xrotation Yrotation
                  End Site
                  {
                    OFFSET -2.33842 -0.294052 0.168128
                  }
                }
              }
              JOINT rPinky1
              {
                OFFSET -8.27202 -0.0477905 -0.4584
                CHANNELS 3 Zrotation Xrotation Yrotation
                JOINT rPinky2
                {
                  OFFSET -1.82734 -0.647385 -0.700984
                  CHANNELS 3 Zrotation Xrotation Yrotation
                  End Site
                  {
                    OFFSET -1.69225 -0.51767 -0.607171
                  }
                }
              }
            }
          }
        }
      }
      JOINT lCollar
      {
        OFFSET 2.68224 19.2634 -4.8768
        CHANNELS 3 Zrotation Xrotation Yrotation
        JOINT lShldr
        {
          OFFSET 8.77824 -1.95073 1.46304
          CHANNELS 3 Zrotation Xrotation Yrotation
          JOINT lForeArm
          {
            OFFSET 28.1742 -1.7115 0.48768
            CHANNELS 3 Zrotation Xrotation Yrotation
            JOINT lHand
            {
              OFFSET 22.5879 0.773209 7.07136
              CHANNELS 3 Zrotation Xrotation Yrotation
              JOINT lThumb1
              {
                OFFSET 1.2192 -0.487915 3.41376
                CHANNELS 3 Zrotation Xrotation Yrotation
                JOINT lThumb2
                {
                  OFFSET 3.37035 -0.52449 3.41376
                  CHANNELS 3 Zrotation Xrotation Yrotation
                  End Site
                  {
                    OFFSET 1.78271 -1.18214 1.43049
                  }
                }
              }
              JOINT lIndex1
              {
                OFFSET 7.75947 0.938293 5.60832
                CHANNELS 3 Zrotation Xrotation Yrotation
                JOINT lIndex2
                {
                  OFFSET 2.54057 -0.884171 1.56538
                  CHANNELS 3 Zrotation Xrotation Yrotation
                  End Site
                  {
                    OFFSET 1.62519 -0.234802 1.16502
                  }
                }
              }
              JOINT lMid1
              {
                OFFSET 8.24714 1.18213 3.41376
                CHANNELS 3 Zrotation Xrotation Yrotation
                JOINT lMid2
                {
                  OFFSET 3.10165 -0.590103 1.0647
                  CHANNELS 3 Zrotation Xrotation Yrotation
                  End Site
                  {
                    OFFSET 2.48547 -0.328903 0.83742
                  }
                }
              }
              JOINT lRing1
              {
                OFFSET 8.82822 0.546677 1.51678
                CHANNELS 3 Zrotation Xrotation Yrotation
                JOINT lRing2
                {
                  OFFSET 2.60934 -0.819778 -0.0198488
                  CHANNELS 3 Zrotation Xrotation Yrotation
                  End Site
                  {
                    OFFSET 2.33842 -0.294052 0.168128
                  }
                }
              }
              JOINT lPinky1
              {
                OFFSET 8.27202 -0.0477905 -0.4584
                CHANNELS 3 Zrotation Xrotation Yrotation
                JOINT lPinky2
                {
                  OFFSET 1.82734 -0.647385 -0.700984
                  CHANNELS 3 Zrotation Xrotation Yrotation
                  End Site
                  {
                    OFFSET 1.69225 -0.51767 -0.607171
                  }
                }
              }
            }
          }
        }
      }
    }
  }
  JOINT rButtock
  {
    OFFSET -8.77824 4.35084 1.2192
    CHANNELS 3 Zrotation Xrotation Yrotation
    JOINT rThigh
    {
      OFFSET 0 -1.70687 -2.19456
      CHANNELS 3 Zrotation Xrotation Yrotation
      JOINT rShin
      {
        OFFSET 0 -36.8199 0.73152
        CHANNELS 3 Zrotation Xrotation Yrotation
        JOINT rFoot
        {
          OFFSET 0.73152 -45.1104 -5.12064
          CHANNELS 3 Zrotation Xrotation Yrotation
          End Site
          {
            OFFSET -1.1221 -3.69964 12.103
          }
        }
      }
    }
  }
  JOINT lButtock
  {
    OFFSET 8.77824 4.35084 1.2192
    CHANNELS 3 Zrotation Xrotation Yrotation
    JOINT lThigh
    {
      OFFSET 0 -1.70687 -2.19456
      CHANNELS 3 Zrotation Xrotation Yrotation
      JOINT lShin
      {
        OFFSET 0 -36.8199 0.73152
        CHANNELS 3 Zrotation Xrotation Yrotation
        JOINT lFoot
        {
          OFFSET -0.73152 -45.1104 -5.12064
          CHANNELS 3 Zrotation Xrotation Yrotation
          End Site
          {
            OFFSET 1.1221 -3.69964 12.103
          }
        }
      }
    }
  }
}
MOTION
Frames:	10
Frame Time:	0.00833333
-60.437298 81.171906 -17.51579 5.792716 -9.346023 5.9699755 -6.080876 -8.550926 3.0422668 3.364093 -11.596487 1.2611943 -3.6999388 24.996805 -23.418291 14.663705 -31.679888 -42.4917 -0.0 0.0 -0.0 -0.0 0.0 -0.0 -0.0 0.0 -0.0 57.661095 9.402899 91.53919 -28.2736 -38.591194 81.432594 -0.5704201 -21.204082 -3.1227221 -0.0 0.0 0.0 -0.0 0.0 0.0 -0.0 0.0 0.0 7.7309012 5.4749126 0.41732216 -0.0 0.0 0.0 2.9055667 0.9650755 0.103008196 -0.0 0.0 0.0 10.278597 0.731881 0.026273511 -0.0 0.0 0.0 2.2216635 -0.73345095 -0.208321 -0.0 0.0 -0.0 -2.3105454 25.402395 -104.16499 27.727497 -41.660694 -86.95289 0.99750626 27.139004 -4.1311345 0.0 0.0 -0.0 0.0 0.0 -0.0 0.0 0.0 -0.0 -7.7309012 5.4749126 -0.41732216 0.0 0.0 -0.0 -2.9055667 0.9650755 -0.103008196 0.0 0.0 -0.0 -10.278597 0.731881 -0.026273511 0.0 0.0 -0.0 -2.2216635 -0.73345095 0.208321 -0.0 0.0 -0.0 -18.5954 -34.767998 -21.942299 -2.3079808 71.5633 2.743312 0.18224715 0.13215435 7.27151 0.0 0.0 0.0 -17.16379 -26.447601 -7.9099956 0.30849138 40.301105 -0.80007523 5.603519 -23.054197 10.93969
-63.434704 81.938 -13.26469 5.929595 6.550987 7.3899994 -6.0659246 -8.938915 3.704172 1.436698 -12.711013 1.3431739 -4.648475 21.130693 -19.446402 13.470095 -33.657307 -35.0905 -0.0 0.0 -0.0 -0.0 0.0 -0.0 -0.0 0.0 -0.0 48.632095 2.5470407 103.08099 -28.379398 -37.379593 79.34221 -0.5538676 -20.660803 -3.0378828 -0.0 0.0 -0.0 -0.0 0.0 -0.0 -0.0 0.0 -0.0 7.7309012 5.4749126 0.41732216 -0.0 0.0 -0.0 2.9055667 0.9650755 0.103008196 -0.0 0.0 -0.0 10.278597 0.731881 0.026273511 -0.0 0.0 -0.0 2.2216635 -0.73345095 -0.208321 -0.0 0.0 -0.0 -8.442033 19.440697 -103.672 27.247496 -43.3153 -90.0989 1.1741766 29.201595 -4.5053105 -0.0 -0.0 -0.0 -0.0 -0.0 -0.0 -0.0 -0.0 -0.0 -7.7309012 5.4749126 -0.41732216 -0.0 -0.0 -0.0 -2.9055667 0.9650755 -0.103008196 -0.0 -0.0 -0.0 -10.278597 0.731881 -0.026273511 -0.0 -0.0 -0.0 -2.2216635 -0.73345095 0.208321 -0.0 0.0 -0.0 -14.383299 -40.770794 -6.9164653 -1.4753711 65.33971 1.9738837 -0.79585725 -10.344706 -1.2250125 0.0 0.0 0.0 -15.642594 -21.90681 -14.569105 0.26069355 37.258976 -0.7113823 1.770522 -21.767708 3.0742226
-66.7656 83.3097 -8.38499 7.2557864 24.959007 8.999954 -6.6637654 -9.967871 5.770038 -0.0042679757 -13.6293 1.9264129 -5.79675 15.199098 -10.299808 9.831813 -30.736496 -17.806202 -0.0 0.0 -0.0 -0.0 0.0 -0.0 -0.0 -0.0 -0.0 38.200993 -2.0388098 108.769 -28.307398 -32.970512 72.0225 -0.4973497 -19.633305 -2.8737822 -0.0 0.0 0.0 -0.0 0.0 0.0 -0.0 0.0 0.0 7.7309012 5.4749126 0.41732216 -0.0 0.0 0.0 2.9055667 0.9650755 0.103008196 -0.0 0.0 0.0 10.278597 0.731881 0.026273511 -0.0 0.0 0.0 2.2216635 -0.73345095 -0.208321 -0.0 -0.0 -0.0 -16.4095 16.383493 -103.214 27.245102 -43.322296 -90.1125 1.7809157 35.12653 -5.668913 -0.0 -0.0 -0.0 -0.0 -0.0 -0.0 -0.0 -0.0 -0.0 -7.7309012 5.4749126 -0.41732216 -0.0 -0.0 -0.0 -2.9055667 0.9650755 -0.103008196 -0.0 -0.0 -0.0 -10.278597 0.731881 -0.026273511 -0.0 -0.0 -0.0 -2.2216635 -0.73345095 0.208321 -0.0 0.0 -0.0 -11.851008 -34.668705 13.609595 -0.6417052 50.950108 0.98469496 2.2256095 -14.877514 7.722856 0.0 0.0 0.0 -11.029685 -18.0162 -18.902798 0.21171053 32.606293 -0.49549177 -3.1899931 -19.263802 -8.956896
-70.6586 83.5613 -3.2086 6.5698924 47.62701 8.700043 -2.770086 -8.892794 10.591213 -1.86543 -13.367389 3.1152759 -4.8843045 13.132802 2.1450174 1.799644 -27.428976 4.988624 -0.0 0.0 -0.0 -0.0 0.0 -0.0 0.0 0.0 0.0 27.061611 -4.0236344 106.423996 -27.5851 -28.538994 64.9215 -0.37456948 -17.143301 -2.4846601 0.0 0.0 0.0 0.0 0.0 0.0 0.0 0.0 0.0 7.7309012 5.4749126 0.41732216 0.0 0.0 0.0 2.9055667 0.9650755 0.103008196 0.0 0.0 0.0 10.278597 0.731881 0.026273511 0.0 0.0 0.0 2.2216635 -0.73345095 -0.208321 0.0 0.0 0.0 -21.395508 15.3194 -105.062996 27.352495 -42.9919 -89.47299 0.7143952 23.280804 -3.4668324 0.0 0.0 -0.0 0.0 0.0 -0.0 0.0 0.0 -0.0 -7.7309012 5.4749126 -0.41732216 0.0 0.0 -0.0 -2.9055667 0.9650755 -0.103008196 0.0 0.0 -0.0 -10.278597 0.731881 -0.026273511 0.0 0.0 -0.0 -2.2216635 -0.73345095 0.208321 -0.0 0.0 -0.0 -9.24414 -21.780191 23.460398 -0.32158184 39.173405 0.5647719 5.5255384 -14.182395 18.639492 0.0 0.0 0.0 -3.651471 -19.243954 -23.468248 0.2505466 32.788094 -0.34375724 -8.285624 -16.012003 -23.879097
-75.7246 82.973305 1.3682041 5.4063377 73.366005 9.519885 1.0871142 -8.267739 14.684182 -4.4808917 -11.480807 4.0283113 -6.141916 16.240482 12.834995 3.5869176 -22.710802 26.1883 -0.0 0.0 -0.0 -0.0 0.0 -0.0 -0.0 0.0 -0.0 21.731396 -1.570212 97.92639 -27.090397 -26.644403 61.9075 -0.27786753 -14.837902 -2.1336923 -0.0 0.0 -0.0 -0.0 0.0 -0.0 -0.0 0.0 -0.0 7.7309012 5.4749126 0.41732216 -0.0 0.0 -0.0 2.9055667 0.9650755 0.103008196 -0.0 0.0 -0.0 10.278597 0.731881 0.026273511 -0.0 0.0 -0.0 2.2216635 -0.73345095 -0.208321 -0.0 0.0 -0.0 -24.319891 17.060505 -104.91999 27.234291 -43.35481 -90.1757 0.570662 20.954296 -3.085165 0.0 0.0 -0.0 0.0 0.0 -0.0 0.0 0.0 -0.0 -7.7309012 5.4749126 -0.41732216 0.0 0.0 -0.0 -2.9055667 0.9650755 -0.103008196 0.0 0.0 -0.0 -10.278597 0.731881 -0.026273511 0.0 0.0 -0.0 -2.2216635 -0.73345095 0.208321 -0.0 0.0 -0.0 -6.7830157 -13.225287 4.6228814 -0.16830894 32.972176 0.6179956 8.4086 -17.912792 23.4207 0.0 0.0 0.0 -1.5276154 -28.254807 -32.119793 0.3190339 37.087894 -0.481443 -7.8474703 -13.769489 -25.2368
-81.247505 82.9048 6.27883 -152.18445 84.26195 -146.46 7.9873037 -6.6154594 20.000795 -5.912037 -8.677616 5.381636 -6.1761317 13.664504 14.880005 5.0078173 -12.375992 30.7375 -0.0 0.0 -0.0 -0.0 0.0 -0.0 -0.0 -0.0 -0.0 22.782988 0.74133533 87.378494 -26.757607 -25.559685 60.1777 -0.20588109 -12.818903 -1.8325875 -0.0 0.0 -0.0 -0.0 0.0 -0.0 -0.0 0.0 -0.0 7.7309012 5.4749126 0.41732216 -0.0 0.0 -0.0 2.9055667 0.9650755 0.103008196 -0.0 0.0 -0.0 10.278597 0.731881 0.026273511 -0.0 0.0 -0.0 2.2216635 -0.73345095 -0.208321 -0.0 -0.0 -0.0 -25.394293 23.720104 -103.172 26.776903 -44.587498 -92.62109 0.2171018 13.1559925 -1.8825213 0.0 0.0 -0.0 0.0 0.0 -0.0 0.0 0.0 -0.0 -7.7309012 5.4749126 -0.41732216 0.0 0.0 -0.0 -2.9055667 0.9650755 -0.103008196 0.0 0.0 -0.0 -10.278597 0.731881 -0.026273511 0.0 0.0 -0.0 -2.2216635 -0.73345095 0.208321 -0.0 0.0 -0.0 4.2239285 -10.200093 -5.967353 0.03390263 27.090796 0.84246385 2.3208244 -24.259 6.2533617 0.0 0.0 0.0 1.50319 -38.0721 -24.642 0.40702972 43.5484 -0.93463725 -0.5046848 -13.635068 -3.4384158
-86.263504 81.949905 10.68591 -170.259 67.33096 -165.62971 10.163394 -3.0531423 21.4869 -4.999825 -9.511804 5.8901587 -5.0101485 13.230405 11.903893 5.6344247 -10.420902 25.150301 -0.0 0.0 -0.0 -0.0 0.0 -0.0 -0.0 0.0 -0.0 31.555298 3.6472597 79.934296 -26.537994 -24.901697 59.12509 -0.82268447 -24.641937 -3.6997378 -0.0 0.0 0.0 -0.0 0.0 0.0 -0.0 0.0 0.0 7.7309012 5.4749126 0.41732216 -0.0 0.0 0.0 2.9055667 0.9650755 0.103008196 -0.0 0.0 0.0 10.278597 0.731881 0.026273511 -0.0 0.0 0.0 2.2216635 -0.73345095 -0.208321 -0.0 0.0 -0.0 -29.115469 36.115437 -94.79209 26.494797 -45.2472 -93.96949 0.09594148 8.80082 -1.246705 0.0 0.0 0.0 0.0 0.0 0.0 0.0 0.0 0.0 -7.7309012 5.4749126 -0.41732216 0.0 0.0 0.0 -2.9055667 0.9650755 -0.103008196 0.0 0.0 0.0 -10.278597 0.731881 -0.026273511 0.0 0.0 0.0 -2.2216635 -0.73345095 0.208321 -0.0 0.0 -0.0 9.733641 -14.903192 -11.452102 0.018315073 30.330994 0.9008258 -3.2378411 -24.920395 -5.9909887 0.0 0.0 0.0 1.22042 -42.095394 -16.355696 0.8299769 56.41643 -1.5177087 2.2287042 -13.798901 5.1705904
-90.275505 80.5345 14.44621 -172.3666 50.215996 -168.97 11.457298 -2.1853747 17.801714 -3.1407948 -8.860265 5.0938845 -4.8989816 12.787807 8.107286 6.7978077 -13.905891 17.764711 -0.0 0.0 -0.0 -0.0 0.0 -0.0 -0.0 -0.0 -0.0 40.4484 4.055337 75.196106 -27.137793 -26.809214 62.169903 -2.5950994 -40.806503 -6.969387 -0.0 0.0 0.0 -0.0 0.0 0.0 -0.0 0.0 0.0 7.7309012 5.4749126 0.41732216 -0.0 0.0 0.0 2.9055667 0.9650755 0.103008196 -0.0 0.0 0.0 10.278597 0.731881 0.026273511 -0.0 0.0 0.0 2.2216635 -0.73345095 -0.208321 -0.0 -0.0 -0.0 -35.5394 48.444706 -79.384995 25.785492 -46.676 -96.99999 0.016357278 -3.64829 0.5135996 -0.0 0.0 -0.0 -0.0 0.0 -0.0 -0.0 0.0 -0.0 -7.7309012 5.4749126 -0.41732216 -0.0 0.0 -0.0 -2.9055667 0.9650755 -0.103008196 -0.0 0.0 -0.0 -10.278597 0.731881 -0.026273511 -0.0 0.0 -0.0 -2.2216635 -0.73345095 0.208321 -0.0 0.0 -0.0 10.48009 -21.042498 -21.093702 -0.10778719 35.51079 0.76935256 -6.7688723 -26.549503 -12.752706 0.0 0.0 0.0 1.7869649 -40.7887 -15.440711 1.75283 68.16957 -2.386644 2.5865996 -10.659692 7.4539857
-94.0209 80.8207 17.166811 -177.13142 36.309017 -172.9502 7.333115 -2.763213 14.143909 -1.8270668 -8.116085 4.2484064 -6.0954537 13.3625 4.1136794 10.453414 -18.510685 10.562597 -0.0 0.0 -0.0 -0.0 0.0 -0.0 -0.0 0.0 -0.0 44.627598 -0.6808834 73.21599 -27.4053 -27.8002 63.7466 -3.525048 -45.8472 -8.3233385 -0.0 -0.0 -0.0 0.0 0.0 -0.0 -0.0 -0.0 -0.0 7.7309012 5.4749126 0.41732216 -0.0 -0.0 -0.0 2.9055667 0.9650755 0.103008196 -0.0 -0.0 -0.0 10.278597 0.731881 0.026273511 -0.0 -0.0 -0.0 2.2216635 -0.73345095 -0.208321 -0.0 0.0 -0.0 -45.499504 56.32229 -58.44639 25.665897 -46.8918 -97.4722 0.29611388 -15.302899 2.2039034 -0.0 0.0 -0.0 -0.0 0.0 -0.0 -0.0 0.0 -0.0 -7.7309012 5.4749126 -0.41732216 -0.0 0.0 -0.0 -2.9055667 0.9650755 -0.103008196 -0.0 0.0 -0.0 -10.278597 0.731881 -0.026273511 -0.0 0.0 -0.0 -2.2216635 -0.73345095 0.208321 -0.0 0.0 -0.0 8.217752 -25.718904 -21.870804 -0.16386802 36.285603 0.56361574 -13.269104 -26.731903 -24.674807 0.0 0.0 0.0 5.840913 -34.138504 -6.787466 2.1013002 70.26101 -2.532403 1.4212041 -4.3703594 5.8780985
-98.1402 82.1278 19.27961 179.11089 26.164005 -173.76991 3.2472522 -5.42046 12.804302 -1.4754711 -7.788017 4.0134106 -7.04758 15.428993 -0.054200225 12.431684 -19.549406 2.7665367 -0.0 0.0 -0.0 -0.0 0.0 -0.0 -0.0 0.0 -0.0 43.2359 -9.415126 73.185 -26.852383 -25.856916 60.652206 -3.9496348 -47.765495 -8.905667 -0.0 0.0 -0.0 -0.0 0.0 -0.0 -0.0 0.0 -0.0 7.7309012 5.4749126 0.41732216 -0.0 0.0 -0.0 2.9055667 0.9650755 0.103008196 -0.0 0.0 -0.0 10.278597 0.731881 0.026273511 -0.0 0.0 -0.0 2.2216635 -0.73345095 -0.208321 -0.0 0.0 -0.0 -59.100613 59.600212 -37.114494 25.913187 -46.4386 -96.4853 1.1295851 -28.701393 4.413173 -0.0 0.0 -0.0 -0.0 0.0 -0.0 -0.0 0.0 -0.0 -7.7309012 5.4749126 -0.41732216 -0.0 0.0 -0.0 -2.9055667 0.9650755 -0.103008196 -0.0 0.0 -0.0 -10.278597 0.731881 -0.026273511 -0.0 0.0 -0.0 -2.2216635 -0.73345095 0.208321 -0.0 0.0 -0.0 2.7919815 -29.49781 -23.802095 -0.18328176 35.1577 0.42490318 -16.34909 -25.280394 -30.593494 0.0 0.0 0.0 7.3205304 -25.145704 1.8164426 1.3921773 63.69459 -1.6575873 -0.50563437 -1.1442913 -5.745575
